HIERARCHY
ROOT hip
{
  OFFSET 5.51535 103.731 -2.80141
  CHANNELS 6 Xposition Yposition Zposition Zrotation Xrotation Yrotation
  JOINT abdomen
  {
    OFFSET 0 -1.186 -1.5018
    CHANNELS 6 Xposition Yposition Zposition Zrotation Xrotation Yrotation
    JOINT abdomen2
    {
      OFFSET 0 9.964 0.2134
      CHANNELS 6 Xposition Yposition Zposition Zrotation Xrotation Yrotation
      JOINT chest
      {
        OFFSET 0 13.134 -3.2573
        CHANNELS 6 Xposition Yposition Zposition Zrotation Xrotation Yrotation
        JOINT neck
        {
          OFFSET 0 20.686 -1.6905
          CHANNELS 6 Xposition Yposition Zposition Zrotation Xrotation Yrotation
          JOINT head
          {
            OFFSET 0 7.23801 -0.1237
            CHANNELS 6 Xposition Yposition Zposition Zrotation Xrotation Yrotation
            End Site
            {
              OFFSET 0 0 0
            }
          }
        }
        JOINT lCollar
        {
          OFFSET 1.7069 20.075 5.0056
          CHANNELS 6 Xposition Yposition Zposition Zrotation Xrotation Yrotation
          JOINT lShldr
          {
            OFFSET 13.6458 -0.0470195 -4.849
            CHANNELS 6 Xposition Yposition Zposition Zrotation Xrotation Yrotation
            JOINT lForeArm
            {
              OFFSET 28.3255 -0.97589 2.2888
              CHANNELS 6 Xposition Yposition Zposition Zrotation Xrotation Yrotation
              JOINT lHand
              {
                OFFSET 22.1583 -0.529998 10.8316
                CHANNELS 6 Xposition Yposition Zposition Zrotation Xrotation Yrotation
                JOINT lThumb1
                {
                  OFFSET 0.786 0.111997 2.5817
                  CHANNELS 6 Xposition Yposition Zposition Zrotation Xrotation Yrotation
                  JOINT lThumb2
                  {
                    OFFSET 0.360097 -0.877999 4.2331
                    CHANNELS 6 Xposition Yposition Zposition Zrotation Xrotation Yrotation
                    JOINT lThumb2_End
                    {
                      OFFSET 1.8127 -1.21601 2.2227
                      CHANNELS 6 Xposition Yposition Zposition Zrotation Xrotation Yrotation
                      End Site
                      {
                        OFFSET 0.0180981 -0.012195 0.0222007
                      }
                    }
                  }
                }
                JOINT lCarpal1
                {
                  OFFSET 0.9571 1.114 1.7695
                  CHANNELS 6 Xposition Yposition Zposition Zrotation Xrotation Yrotation
                  JOINT lIndex1
                  {
                    OFFSET 4.12461 0.486992 4.1451
                    CHANNELS 6 Xposition Yposition Zposition Zrotation Xrotation Yrotation
                    JOINT lIndex2
                    {
                      OFFSET 3.4052 -1.45401 2.7682
                      CHANNELS 6 Xposition Yposition Zposition Zrotation Xrotation Yrotation
                      JOINT lIndex2_End
                      {
                        OFFSET 1.45309 -1.79499 1.2713
                        CHANNELS 6 Xposition Yposition Zposition Zrotation Xrotation Yrotation
                        End Site
                        {
                          OFFSET 0.0144979 -0.0179083 0.0126995
                        }
                      }
                    }
                  }
                  JOINT lMid1
                  {
                    OFFSET 5.6954 0.209987 2.1184
                    CHANNELS 6 Xposition Yposition Zposition Zrotation Xrotation Yrotation
                    JOINT lMid2
                    {
                      OFFSET 3.9766 -1.53999 2.3863
                      CHANNELS 6 Xposition Yposition Zposition Zrotation Xrotation Yrotation
                      JOINT lMid2_End
                      {
                        OFFSET 1.4042 -1.926 1.125
                        CHANNELS 6 Xposition Yposition Zposition Zrotation Xrotation Yrotation
                        End Site
                        {
                          OFFSET 0.013999 -0.0193044 0.011301
                        }
                      }
                    }
                  }
                }
                JOINT lCarpal2
                {
                  OFFSET 2.0956 0.66 -0.3894
                  CHANNELS 6 Xposition Yposition Zposition Zrotation Xrotation Yrotation
                  JOINT lRing1
                  {
                    OFFSET 5.0395 -0.090013 2.4971
                    CHANNELS 6 Xposition Yposition Zposition Zrotation Xrotation Yrotation
                    JOINT lRing2
                    {
                      OFFSET 3.7921 -1.55199 1.4806
                      CHANNELS 6 Xposition Yposition Zposition Zrotation Xrotation Yrotation
                      JOINT lRing2_End
                      {
                        OFFSET 1.4655 -1.808 0.9609
                        CHANNELS 6 Xposition Yposition Zposition Zrotation Xrotation Yrotation
                        End Site
                        {
                          OFFSET 0.0147015 -0.0181014 0.00959957
                        }
                      }
                    }
                  }
                  JOINT lPinky1
                  {
                    OFFSET 4.9141 -1.269 0.3591
                    CHANNELS 6 Xposition Yposition Zposition Zrotation Xrotation Yrotation
                    JOINT lPinky2
                    {
                      OFFSET 3.1477 -1.685 0.8462
                      CHANNELS 6 Xposition Yposition Zposition Zrotation Xrotation Yrotation
                      JOINT lPinky2_End
                      {
                        OFFSET 0.805498 -1.58501 0.795499
                        CHANNELS 6 Xposition Yposition Zposition Zrotation Xrotation Yrotation
                        End Site
                        {
                          OFFSET 0.00809703 -0.0157944 0.00799848
                        }
                      }
                    }
                  }
                }
              }
            }
          }
        }
        JOINT rCollar
        {
          OFFSET -1.7069 20.075 5.0056
          CHANNELS 6 Xposition Yposition Zposition Zrotation Xrotation Yrotation
          JOINT rShldr
          {
            OFFSET -13.6458 -0.0470107 -4.849
            CHANNELS 6 Xposition Yposition Zposition Zrotation Xrotation Yrotation
            JOINT rForeArm
            {
              OFFSET -28.3255 -0.975895 2.2888
              CHANNELS 6 Xposition Yposition Zposition Zrotation Xrotation Yrotation
              JOINT rHand
              {
                OFFSET -22.1583 -0.530007 10.8316
                CHANNELS 6 Xposition Yposition Zposition Zrotation Xrotation Yrotation
                JOINT rThumb1
                {
                  OFFSET -0.785997 0.112005 2.5817
                  CHANNELS 6 Xposition Yposition Zposition Zrotation Xrotation Yrotation
                  JOINT rThumb2
                  {
                    OFFSET -0.360106 -0.877994 4.2331
                    CHANNELS 6 Xposition Yposition Zposition Zrotation Xrotation Yrotation
                    JOINT rThumb2_End
                    {
                      OFFSET -1.8127 -1.216 2.2227
                      CHANNELS 6 Xposition Yposition Zposition Zrotation Xrotation Yrotation
                      End Site
                      {
                        OFFSET -0.0180972 -0.0121973 0.0222005
                      }
                    }
                  }
                }
                JOINT rCarpal1
                {
                  OFFSET -0.9571 1.114 1.7695
                  CHANNELS 6 Xposition Yposition Zposition Zrotation Xrotation Yrotation
                  JOINT rIndex1
                  {
                    OFFSET -4.1246 0.487011 4.1451
                    CHANNELS 6 Xposition Yposition Zposition Zrotation Xrotation Yrotation
                    JOINT rIndex2
                    {
                      OFFSET -3.4052 -1.45401 2.7682
                      CHANNELS 6 Xposition Yposition Zposition Zrotation Xrotation Yrotation
                      JOINT rIndex2_End
                      {
                        OFFSET -1.4531 -1.795 1.2713
                        CHANNELS 6 Xposition Yposition Zposition Zrotation Xrotation Yrotation
                        End Site
                        {
                          OFFSET -0.0145077 -0.0180048 0.0127017
                        }
                      }
                    }
                  }
                  JOINT rMid1
                  {
                    OFFSET -5.6954 0.210002 2.1184
                    CHANNELS 6 Xposition Yposition Zposition Zrotation Xrotation Yrotation
                    JOINT rMid2
                    {
                      OFFSET -3.9766 -1.54 2.3863
                      CHANNELS 6 Xposition Yposition Zposition Zrotation Xrotation Yrotation
                      JOINT rMid2_End
                      {
                        OFFSET -1.4042 -1.926 1.125
                        CHANNELS 6 Xposition Yposition Zposition Zrotation Xrotation Yrotation
                        End Site
                        {
                          OFFSET -0.0139948 -0.0192916 0.0112994
                        }
                      }
                    }
                  }
                }
                JOINT rCarpal2
                {
                  OFFSET -2.0956 0.66 -0.3894
                  CHANNELS 6 Xposition Yposition Zposition Zrotation Xrotation Yrotation
                  JOINT rRing1
                  {
                    OFFSET -5.03951 -0.0899879 2.4971
                    CHANNELS 6 Xposition Yposition Zposition Zrotation Xrotation Yrotation
                    JOINT rRing2
                    {
                      OFFSET -3.7921 -1.55201 1.4806
                      CHANNELS 6 Xposition Yposition Zposition Zrotation Xrotation Yrotation
                      JOINT rRing2_End
                      {
                        OFFSET -1.4655 -1.808 0.960901
                        CHANNELS 6 Xposition Yposition Zposition Zrotation Xrotation Yrotation
                        End Site
                        {
                          OFFSET -0.0146934 -0.0180999 0.00959832
                        }
                      }
                    }
                  }
                  JOINT rPinky1
                  {
                    OFFSET -4.91411 -1.26899 0.359202
                    CHANNELS 6 Xposition Yposition Zposition Zrotation Xrotation Yrotation
                    JOINT rPinky2
                    {
                      OFFSET -3.14769 -1.68501 0.846199
                      CHANNELS 6 Xposition Yposition Zposition Zrotation Xrotation Yrotation
                      JOINT rPinky2_End
                      {
                        OFFSET -0.805498 -1.585 0.7955
                        CHANNELS 6 Xposition Yposition Zposition Zrotation Xrotation Yrotation
                        End Site
                        {
                          OFFSET -0.00810035 -0.0158035 0.00800029
                        }
                      }
                    }
                  }
                }
              }
            }
          }
        }
      }
    }
  }
  JOINT lThigh
  {
    OFFSET 8.367 -8.2066 0.5982
    CHANNELS 6 Xposition Yposition Zposition Zrotation Xrotation Yrotation
    JOINT lShin
    {
      OFFSET 2.1923 -43.463 -0.4932
      CHANNELS 6 Xposition Yposition Zposition Zrotation Xrotation Yrotation
      JOINT lFoot
      {
        OFFSET 0.733301 -45.8593 -2.6451
        CHANNELS 6 Xposition Yposition Zposition Zrotation Xrotation Yrotation
        End Site
        {
          OFFSET 2.6618 -4.2699 12.3931
        }
      }
    }
  }
  JOINT rThigh
  {
    OFFSET -8.367 -8.2066 0.5982
    CHANNELS 6 Xposition Yposition Zposition Zrotation Xrotation Yrotation
    JOINT rShin
    {
      OFFSET -2.1923 -43.463 -0.4931
      CHANNELS 6 Xposition Yposition Zposition Zrotation Xrotation Yrotation
      JOINT rFoot
      {
        OFFSET -0.733299 -45.8593 -2.6451
        CHANNELS 6 Xposition Yposition Zposition Zrotation Xrotation Yrotation
        End Site
        {
          OFFSET -2.6618 -4.2699 12.3931
        }
      }
    }
  }
}
MOTION
Frames:	4
Frame Time:	0.0333333
-41.9669 100.055 -52.832 -0.635289 6.14514 101.884 1.13537e-006 -1.18599 -1.5018 -0.000401257 -2.15286 1.02191 3.95815e-007 9.964 0.213398 0.0376649 -4.30544 2.04555 -5.12155e-007 13.134 -3.2573 0.037668 -4.30544 2.04555 -2.02918e-006 20.686 -1.6905 -0.570314 13.6137 -8.57099 -1.16556e-006 7.23801 -0.123699 -6.33127 -1.09968 -8.8114 1.7069 20.075 5.0056 0.495367 0.858107 8.23819 13.6458 -0.047012 -4.849 -74.2327 -0.44489 34.0651 28.3255 -0.975897 2.2888 -1.6179 8.30987 -8.63413 22.1583 -0.529994 10.8316 -26.7082 -34.8365 -2.27148 0.786003 0.111995 2.5817 0.0131074 -0.00212764 -0.00644248 0.360095 -0.877997 4.2331 -0.000236167 -0.000193065 9.22862e-005 1.8127 -1.21601 2.2227 -0.000175492 5.68587e-005 8.79211e-006 0.9571 1.114 1.7695 2.38542e-015 3.18055e-015 -1.59028e-015 4.12461 0.486992 4.1451 0.00072065 0.00212904 -0.000255443 3.4052 -1.45401 2.7682 0.000381532 0.000105394 2.17532e-006 1.4531 -1.79499 1.2713 -0.000173847 3.2263e-005 2.9976e-005 5.69541 0.209989 2.1184 2.01424 -1.01025 -0.822487 3.9766 -1.54 2.3863 2.01524 -1.01084 -0.822916 1.4042 -1.926 1.125 2.01531 -1.01096 -0.823212 2.0956 0.66 -0.3894 2.38542e-015 3.18055e-015 -1.59028e-015 5.0395 -0.0900127 2.4971 1.83513 -3.86237 -5.61255 3.7921 -1.55199 1.4806 4.41723 -2.45616 -2.02478 1.4655 -1.808 0.960898 4.4175 -2.45619 -2.02484 4.91411 -1.26901 0.359103 10.7573 -6.72632 -4.5288 3.1477 -1.685 0.846202 3.85859 -2.2813 -1.74599 0.805499 -1.585 0.795502 2.70807 -1.58473 -1.23797 -1.7069 20.075 5.0056 -43.5853 -1.22254 5.57958 -13.6458 -0.0470071 -4.849 -9.49005 -41.9517 -7.41698 -28.3255 -0.975887 2.2888 7.43829 -33.1584 10.498 -22.1583 -0.530005 10.8316 11.1114 -20.0499 -6.43042 -0.786003 0.112003 2.5817 -19.2147 49.93 17.7822 -0.360104 -0.877994 4.2331 -0.518235 0.461411 -1.59085 -1.81269 -1.216 2.2227 -2.77348 2.81313 -9.01339 -0.9571 1.114 1.7695 -1.41245e-030 -6.36111e-015 -1.27222e-014 -4.12461 0.487012 4.14511 -23.5939 3.39938 -15.5089 -3.4052 -1.45401 2.7682 39.4978 10.0978 -9.27471 -1.4531 -1.79499 1.27131 38.8029 9.98604 -9.06156 -5.6954 0.210002 2.1184 -1.04511 5.49493 -10.0573 -3.9766 -1.54 2.3863 52.3088 13.5299 -14.1044 -1.4042 -1.926 1.125 44.0035 12.3921 -11.1857 -2.0956 0.66 -0.3894 -1.41245e-030 -6.36111e-015 -1.27222e-014 -5.03951 -0.0899871 2.49711 16.4906 0.279556 -5.66061 -3.7921 -1.55201 1.48061 37.334 11.9096 -10.7862 -1.4655 -1.808 0.9609 38.6321 12.1694 -11.2725 -4.9141 -1.26899 0.3592 24.6714 -0.289512 -2.09331 -3.1477 -1.68501 0.846201 30.529 11.3149 -8.19443 -0.805499 -1.58499 0.795502 30.4595 11.2958 -8.16997 8.367 -8.2066 0.598197 -24.2814 2.37267 -2.00932 2.19231 -43.463 -0.493199 0.530447 -1.53219 0.991246 0.7333 -45.8593 -2.6451 10.3148 -0.00963343 -6.19636 -8.367 -8.20659 0.598204 -2.01977 -16.059 45.6689 -2.19229 -43.463 -0.49311 13.3705 41.8747 -5.65963 -0.733297 -45.8593 -2.6451 -15.7778 3.29947 -23.1761 
-41.928 100.02 -52.9184 -0.618043 6.21431 102.51 2.76156e-007 -1.186 -1.5018 0.00258062 -2.1465 0.899686 1.4404e-007 9.964 0.2134 0.0389492 -4.2927 1.80118 2.6281e-007 13.134 -3.2573 0.0389482 -4.2927 1.80115 1.14319e-006 20.6861 -1.69048 -0.538452 13.6142 -8.47229 2.1661e-006 7.23801 -0.123699 -6.24529 -1.03556 -8.70334 1.7069 20.075 5.0056 0.528694 0.885573 8.581 13.6458 -0.0470031 -4.849 -74.1018 -0.385888 34.0472 28.3255 -0.975895 2.2888 -1.4001 8.46414 -8.7922 22.1583 -0.530004 10.8316 -27.7857 -36.0063 -2.45318 0.786003 0.111994 2.5817 -0.0289596 -0.009174 -0.086022 0.360101 -0.877998 4.2331 -0.000237824 -0.00020957 9.39192e-005 1.8127 -1.21601 2.2227 -0.0273105 -0.0031836 -0.0497401 0.9571 1.114 1.7695 7.95139e-016 6.36111e-015 -0 4.1246 0.486994 4.1451 0.0934622 -0.0530144 -0.0946128 3.4052 -1.45401 2.7682 0.0936762 -0.0412986 -0.0381194 1.4531 -1.79499 1.2713 0.103754 -0.0460907 -0.0424324 5.69541 0.209989 2.1184 2.09969 -1.05416 -0.858563 3.9766 -1.53999 2.3863 2.10139 -1.05485 -0.857431 1.4042 -1.926 1.125 2.10145 -1.05497 -0.85772 2.0956 0.66 -0.3894 7.95139e-016 6.36111e-015 -0 5.0395 -0.0900111 2.4971 1.91809 -3.88792 -5.61478 3.7921 -1.55199 1.4806 4.48118 -2.49319 -2.05296 1.4655 -1.808 0.960897 4.48143 -2.4932 -2.05303 4.9141 -1.269 0.359106 10.8232 -6.7144 -4.46672 3.1477 -1.68501 0.846204 3.92571 -2.32237 -1.77527 0.805496 -1.58501 0.795499 2.78392 -1.60131 -1.26157 -1.7069 20.075 5.0056 -43.585 -1.22084 5.56096 -13.6458 -0.0470099 -4.849 -10.1791 -41.6653 -7.66943 -28.3255 -0.975891 2.2888 7.16317 -32.015 9.92385 -22.1583 -0.529995 10.8316 11.5503 -21.3943 -6.00157 -0.786003 0.112005 2.5817 -19.2147 49.9301 17.7822 -0.360103 -0.877994 4.2331 -0.518254 0.461415 -1.59087 -1.81269 -1.216 2.2227 -2.77349 2.81314 -9.01342 -0.9571 1.114 1.7695 -7.06225e-031 6.36111e-015 6.36111e-015 -4.1246 0.487011 4.1451 -23.5939 3.39938 -15.5089 -3.4052 -1.45401 2.7682 39.4978 10.0978 -9.2747 -1.4531 -1.79499 1.2713 38.8029 9.98605 -9.06156 -5.69541 0.210001 2.1184 -1.0451 5.49493 -10.0573 -3.9766 -1.54 2.3863 52.3088 13.5299 -14.1044 -1.4042 -1.926 1.125 44.0035 12.3921 -11.1857 -2.0956 0.66 -0.3894 -7.06225e-031 6.36111e-015 6.36111e-015 -5.03951 -0.0899862 2.49711 16.4906 0.279564 -5.66061 -3.7921 -1.552 1.4806 37.334 11.9096 -10.7863 -1.4655 -1.80801 0.960899 38.6322 12.1694 -11.2725 -4.9141 -1.26899 0.359199 24.6714 -0.289506 -2.09333 -3.1477 -1.68501 0.8462 30.529 11.315 -8.19444 -0.8055 -1.58499 0.795502 30.4595 11.2958 -8.16996 8.367 -8.20659 0.598201 -24.3353 2.57905 -1.98388 2.19229 -43.463 -0.493204 0.465847 -1.46252 0.703745 0.733296 -45.8593 -2.6451 10.5301 -0.111386 -6.47494 -8.367 -8.2066 0.598206 -1.99514 -15.9701 45.8934 -2.19229 -43.4631 -0.49311 13.6551 42.4006 -5.77905 -0.733299 -45.8593 -2.64509 -14.6676 3.53081 -22.0657 
-41.8171 99.9882 -53.0077 -0.560817 6.23426 103.175 1.18763e-006 -1.186 -1.5018 0.00625822 -2.14488 0.758801 1.24224e-006 9.96399 0.2134 0.0409849 -4.2895 1.51933 6.7277e-007 13.134 -3.2573 0.0409828 -4.28949 1.51934 1.44083e-005 20.6863 -1.69044 -0.500866 13.741 -8.42987 -1.1651e-008 7.23801 -0.123702 -5.99789 -0.988647 -8.55658 1.7069 20.075 5.0056 0.569598 0.914544 8.98049 13.6458 -0.0470136 -4.849 -73.7881 -0.358193 34.2002 28.3255 -0.975904 2.28881 -1.18991 8.67424 -9.22629 22.1583 -0.529996 10.8316 -29.1774 -36.8978 -2.49398 0.786004 0.111997 2.5817 -0.145066 -0.0268037 -0.30903 0.360101 -0.878 4.2331 -0.000236006 -0.000204142 9.51873e-005 1.8127 -1.21602 2.2227 -0.0804396 -0.0185415 -0.189987 0.9571 1.114 1.7695 7.95139e-016 0 -4.77083e-015 4.1246 0.486992 4.1451 0.353816 -0.202394 -0.358596 3.4052 -1.45401 2.7682 0.353932 -0.157199 -0.144168 1.4531 -1.79499 1.2713 0.393661 -0.175262 -0.160527 5.6954 0.209988 2.1184 2.33816 -1.17695 -0.958785 3.9766 -1.53999 2.3863 2.34174 -1.178 -0.95343 1.4042 -1.926 1.125 2.35015 -1.1766 -0.953341 2.0956 0.66 -0.3894 7.95139e-016 0 -4.77083e-015 5.0395 -0.0900085 2.4971 2.14951 -3.95944 -5.62068 3.7921 -1.55199 1.4806 4.65956 -2.59669 -2.13143 1.4655 -1.808 0.960902 4.65982 -2.59671 -2.13149 4.9141 -1.269 0.359101 11.005 -6.66536 -4.27829 3.1477 -1.685 0.846198 4.11298 -2.43716 -1.85672 0.805498 -1.58501 0.7955 2.99978 -1.72491 -1.35533 -1.7069 20.075 5.0056 -43.5841 -1.21626 5.50658 -13.6458 -0.0470114 -4.84901 -10.6519 -41.313 -7.85599 -28.3255 -0.975892 2.28879 6.91284 -30.8222 9.54831 -22.1583 -0.530006 10.8316 11.9011 -22.7716 -5.60985 -0.786005 0.112004 2.5817 -19.2147 49.9301 17.7822 -0.360111 -0.877992 4.23311 -0.518235 0.461421 -1.59086 -1.8127 -1.216 2.2227 -2.77349 2.81313 -9.0134 -0.9571 1.114 1.7695 -1.76556e-031 -3.18055e-015 -3.18055e-015 -4.1246 0.487014 4.1451 -23.5939 3.39937 -15.5089 -3.4052 -1.45401 2.7682 39.4978 10.0978 -9.2747 -1.4531 -1.795 1.2713 38.8029 9.98602 -9.06155 -5.69541 0.210002 2.1184 -1.04515 5.49495 -10.0573 -3.9766 -1.54 2.38629 52.3088 13.5299 -14.1044 -1.4042 -1.926 1.125 44.0035 12.3921 -11.1857 -2.0956 0.66 -0.3894 -1.76556e-031 -3.18055e-015 -3.18055e-015 -5.03951 -0.0899866 2.4971 16.4906 0.279556 -5.6606 -3.7921 -1.55201 1.4806 37.334 11.9096 -10.7862 -1.4655 -1.80801 0.960896 38.6322 12.1694 -11.2725 -4.91411 -1.26899 0.359204 24.6714 -0.289518 -2.09331 -3.14769 -1.68501 0.846193 30.529 11.315 -8.19444 -0.805501 -1.585 0.7955 30.4595 11.2959 -8.16995 8.367 -8.20659 0.598199 -24.3228 2.85311 -1.92039 2.1923 -43.463 -0.493198 0.398012 -1.35214 0.408867 0.733308 -45.8593 -2.6451 10.7168 -0.289374 -6.79658 -8.367 -8.2066 0.598198 -1.7423 -15.8931 45.8479 -2.1923 -43.4631 -0.493114 13.9803 43.3691 -7.30993 -0.733302 -45.8593 -2.6451 -12.3965 3.48994 -19.6682 
-41.6389 99.9604 -53.0925 -0.465914 6.21944 103.729 5.28354e-007 -1.186 -1.5018 0.0129998 -2.15485 0.643052 -7.48062e-007 9.964 0.2134 0.0503021 -4.30944 1.28804 -1.61438e-006 13.134 -3.2573 0.050301 -4.30944 1.28803 1.34495e-006 20.686 -1.6905 -0.467845 13.982 -8.45074 4.63126e-007 7.23801 -0.123698 -5.72845 -0.882193 -8.42445 1.7069 20.075 5.0056 0.649935 0.946025 9.41507 13.6458 -0.0470131 -4.849 -73.3586 -0.376905 34.437 28.3255 -0.975902 2.2888 -0.970909 8.80031 -9.71967 22.1583 -0.529998 10.8316 -31.0548 -38.0679 -2.74051 0.786006 0.111996 2.5817 -0.320577 -0.0522416 -0.648037 0.3601 -0.877997 4.2331 -0.000239122 -0.000228491 0.000101568 1.8127 -1.21601 2.2227 -0.218122 -0.0253304 -0.39941 0.9571 1.114 1.7695 -2.38542e-015 -3.18055e-015 -3.18055e-015 4.1246 0.486992 4.1451 0.748366 -0.428609 -0.758115 3.4052 -1.45401 2.7682 0.74821 -0.333888 -0.303989 1.4531 -1.79499 1.2713 0.832837 -0.372287 -0.338366 5.69541 0.209987 2.11841 2.69948 -1.364 -1.10963 3.9766 -1.54 2.3863 2.70587 -1.3655 -1.09805 1.4042 -1.926 1.125 2.70591 -1.36559 -1.09835 2.0956 0.66 -0.3894 -2.38542e-015 -3.18055e-015 -3.18055e-015 5.0395 -0.0900143 2.4971 2.50039 -4.06857 -5.62881 3.7921 -1.55199 1.4806 4.92985 -2.75412 -2.24983 1.4655 -1.808 0.960902 4.93012 -2.75414 -2.24989 4.9141 -1.269 0.359103 11.2797 -6.59215 -3.99147 3.1477 -1.685 0.846198 4.39673 -2.61178 -1.97955 0.8055 -1.585 0.795502 3.3185 -1.95262 -1.50872 -1.7069 20.075 5.0056 -43.5824 -1.20887 5.42137 -13.6458 -0.0470169 -4.84899 -10.9439 -40.8893 -8.01722 -28.3255 -0.975875 2.28881 6.71397 -29.5858 9.44253 -22.1583 -0.530003 10.8316 12.1261 -24.1336 -5.33348 -0.785996 0.112006 2.5817 -19.2147 49.9301 17.7822 -0.360106 -0.877993 4.2331 -0.518245 0.461425 -1.59086 -1.81269 -1.216 2.2227 -2.77348 2.81314 -9.01339 -0.9571 1.114 1.7695 6.36111e-015 3.18055e-015 -0 -4.12461 0.487013 4.1451 -23.5939 3.39939 -15.5089 -3.4052 -1.454 2.7682 39.4978 10.0978 -9.27471 -1.4531 -1.795 1.27129 38.8029 9.98606 -9.06155 -5.6954 0.210003 2.1184 -1.04514 5.49501 -10.0573 -3.9766 -1.54 2.3863 52.3088 13.5299 -14.1044 -1.4042 -1.926 1.125 44.0035 12.3921 -11.1857 -2.0956 0.66 -0.3894 6.36111e-015 3.18055e-015 -0 -5.03951 -0.0899863 2.49711 16.4906 0.279569 -5.6606 -3.7921 -1.55201 1.4806 37.334 11.9096 -10.7862 -1.4655 -1.808 0.960905 38.6321 12.1694 -11.2725 -4.91411 -1.26899 0.359205 24.6714 -0.289499 -2.09332 -3.1477 -1.68501 0.8462 30.529 11.3149 -8.19444 -0.805498 -1.585 0.795499 30.4595 11.2959 -8.16996 8.367 -8.20659 0.598192 -24.2656 3.21546 -1.8259 2.1923 -43.463 -0.493197 0.34438 -1.33353 0.17733 0.733303 -45.8593 -2.6451 10.8713 -0.479703 -7.0991 -8.367 -8.20661 0.598204 -1.26432 -15.9716 45.5558 -2.1923 -43.463 -0.493093 14.6925 44.9412 -8.11601 -0.733295 -45.8593 -2.6451 -9.91837 3.62969 -18.6054 
